<svg width="35.601562" height="22.201660" viewBox="0 0 35.6016 22.2017" fill="none" xmlns="http://www.w3.org/2000/svg" xmlns:xlink="http://www.w3.org/1999/xlink">
	<desc>
			Created with Pixso.
	</desc>
	<defs/>
	<path id="Vector" d="M35.3842 11.5913L24.2588 21.9983C23.969 22.2695 23.4996 22.2695 23.21 21.9983C22.9202 21.7273 22.9202 21.2883 23.21 21.0173L33.0694 11.7947L0.741699 11.7947C0.331726 11.7947 0 11.4844 0 11.1008C0 10.7173 0.331726 10.407 0.741699 10.407L33.0694 10.407L23.21 1.18433C22.9202 0.91333 22.9202 0.474121 23.21 0.203369C23.3548 0.0678711 23.5446 0 23.7344 0C23.9242 0 24.1139 0.0678711 24.2589 0.203369L35.3843 10.6104C35.674 10.8813 35.674 11.3203 35.3842 11.5913Z" fill="#000000" fill-opacity="1.000000" fill-rule="nonzero"/>
</svg>
